PathFileType	4	(X/Y/Z)	c:/Users/goper/Files/vsCode/490R/osim_files/C11/C11_Static02.trc
DataRate	CameraRate	NumFrames	NumMarkers	Units                	OrigDataRate	OrigDataStartFrame	OrigNumFrames
120.00	120.00	9	36	mm	120.0	367	978
                Frame#	Time	LPSI			LASI			LTH1			LTH2			LTH3			LTH4			LLFE			LMFE			LSH1			LSH2			LSH3			LSH4			LLMA			LMMA			LCAL			LMTP			LTOE			LMTP			RPSI			RASI			RTH1			RTH2			RTH3			RTH4			RLFE			RMFE			RSH1			RSH2			RSH3			RSH4			RLMA			RMMA			RCAL			RMTP			RTOE			RMTP		
		X1	Y1	Z1	X2	Y2	Z2	X3	Y3	Z3	X4	Y4	Z4	X5	Y5	Z5	X6	Y6	Z6	X7	Y7	Z7	X8	Y8	Z8	X9	Y9	Z9	X10	Y10	Z10	X11	Y11	Z11	X12	Y12	Z12	X13	Y13	Z13	X14	Y14	Z14	X15	Y15	Z15	X16	Y16	Z16	X17	Y17	Z17	X18	Y18	Z18	X19	Y19	Z19	X20	Y20	Z20	X21	Y21	Z21	X22	Y22	Z22	X23	Y23	Z23	X24	Y24	Z24	X25	Y25	Z25	X26	Y26	Z26	X27	Y27	Z27	X28	Y28	Z28	X29	Y29	Z29	X30	Y30	Z30	X31	Y31	Z31	X32	Y32	Z32	X33	Y33	Z33	X34	Y34	Z34	X35	Y35	Z35	X36	Y36	Z36

367	3.05000	-379.69925	1022.61206	506.15375	-205.30489	1004.56232	432.10043	-315.56439	599.15167	350.39114	-305.42865	552.65485	353.37585	-255.58527	607.58313	355.20651	-255.68834	562.28290	359.18488	-308.79666	514.32196	352.64395	-296.30862	502.71741	463.70126	-365.14230	408.94775	340.44006	-364.05331	364.27881	337.76730	-302.83047	405.83875	332.81540	-310.78149	361.19531	331.57050	-336.54584	94.53214	378.50046	-302.32208	110.35601	469.47983	-392.04099	58.49543	435.42352	-225.57173	39.84922	340.70920	-149.93179	56.98793	405.77493	-187.35165	44.89138	454.13687	-373.21811	1033.40979	592.85114	-211.21996	997.37067	669.15179	-326.98590	604.56165	726.18939	-319.90213	560.78864	723.44232	-264.37784	606.80609	719.30212	-267.68622	563.91693	719.22510	-306.47723	519.42596	715.13568	-322.12238	492.40305	601.09015	-378.88626	413.00272	730.96051	-375.29950	367.11215	732.45636	-318.77832	409.65179	731.35132	-322.22443	363.76215	735.53680	-357.75815	97.44899	703.75946	-318.44397	105.97594	613.29907	-413.07748	59.74924	643.18311	-195.26746	49.02948	652.56622	-198.22585	61.80542	702.79382	-246.85298	39.40062	757.45453
368	3.05833	-379.26978	1022.54291	506.27380	-204.99782	1004.60651	432.11249	-315.44391	599.20331	350.40598	-305.29202	552.70129	353.38818	-255.43126	607.60425	355.24185	-255.56906	562.30139	359.21793	-308.73248	514.37567	352.66891	-297.41632	502.19067	463.17975	-365.13608	409.02344	340.47919	-364.02045	364.32178	337.78909	-302.80780	405.90686	332.84741	-310.77240	361.25366	331.58578	-336.53983	94.57639	378.49255	-302.35382	110.39977	469.47766	-392.04468	58.53581	435.43414	-225.58246	39.87403	340.69159	-149.92400	57.01747	405.77936	-187.33672	44.91727	454.14706	-372.79453	1033.38000	592.93298	-210.70322	997.40295	669.13458	-326.82114	604.57141	726.17810	-319.73944	560.80200	723.44843	-264.18909	606.81030	719.32922	-267.51480	563.90814	719.24493	-306.34158	519.42706	715.12518	-322.04758	492.46707	601.07599	-378.81558	413.02371	730.98248	-375.26233	367.13187	732.47723	-318.77509	409.63638	731.36041	-322.21561	363.76923	735.55737	-357.78622	97.46845	703.73993	-318.42133	106.01086	613.29492	-413.09811	59.78329	643.17212	-195.27138	49.05921	652.57507	-198.25941	61.82156	702.80054	-246.85287	39.42722	757.46375
369	3.06667	-378.95547	1022.58057	506.39929	-204.72493	1004.67908	432.09198	-315.30444	599.28436	350.42557	-305.14899	552.76233	353.40036	-255.28120	607.65149	355.27368	-254.94447	560.94324	360.58289	-308.65103	514.43414	352.69308	-296.10117	502.87405	463.70941	-365.05075	409.09891	340.46133	-363.13702	365.60614	336.88251	-302.79132	405.95792	332.87146	-310.43674	361.66571	331.45602	-336.50076	94.63605	378.49405	-302.28717	110.51529	469.44693	-392.07782	58.66658	435.36807	-225.56870	39.95732	340.66241	-149.93790	57.07614	405.74030	-187.31406	45.00182	454.13583	-372.26898	1033.42407	593.07947	-210.18427	997.48120	669.10516	-326.57761	604.67310	726.19751	-319.51721	560.91284	723.42383	-263.90479	606.88190	719.26721	-267.27887	563.95752	719.21423	-306.19452	519.51654	715.13098	-321.96945	492.52600	601.10083	-378.72144	413.19098	730.97778	-375.24683	367.32147	732.53546	-318.62793	409.77374	731.38336	-322.08420	363.87830	735.53882	-357.77649	97.59309	703.71625	-318.40829	106.07345	613.28839	-413.43152	59.75349	643.37616	-195.24699	49.14923	652.53796	-198.24388	61.88396	702.77905	-246.84624	39.50941	757.44159
370	3.07500	-378.61749	1022.62329	506.51154	-204.41127	1004.69598	432.07758	-315.16586	599.31689	350.45456	-304.99063	552.78809	353.43192	-255.15491	607.64911	355.31070	-254.77895	560.95276	360.62173	-308.55273	514.44995	352.73636	-295.21515	503.28546	463.70038	-364.95898	409.18091	340.46738	-363.90109	364.43668	337.80548	-302.73788	405.96323	332.90878	-310.64746	361.39719	331.62955	-336.47409	94.66247	378.47910	-302.19696	110.61752	469.41483	-392.04321	58.74306	435.30167	-225.52020	39.90691	340.72266	-149.92879	57.06961	405.71219	-187.30042	45.04495	454.08472	-371.74667	1033.40088	593.27740	-209.60388	997.53864	669.06525	-326.27072	604.74847	726.25128	-319.23624	560.99646	723.42804	-263.57245	606.93317	719.21844	-266.98996	563.96790	719.18921	-305.91446	519.61127	715.15314	-321.87338	492.55099	601.14301	-378.55746	413.28232	731.02124	-375.05612	367.40393	732.50781	-318.33740	409.91095	731.42560	-321.91428	363.94235	735.51843	-357.73544	97.69305	703.68719	-318.38211	106.10117	613.28497	-413.42609	59.85506	643.32458	-195.21448	49.19273	652.50189	-198.21719	61.91193	702.73944	-246.80334	39.55862	757.41406
371	3.08333	-378.27917	1022.57855	506.67734	-204.10715	1004.71698	432.04721	-315.04037	599.33478	350.49252	-304.86804	552.78461	353.51334	-255.04251	607.62286	355.32913	-255.15268	562.34894	359.28854	-308.44638	514.46472	352.77707	-295.79324	502.99014	463.73492	-364.83307	409.20163	340.45035	-363.80789	364.45688	337.82431	-302.70941	405.96695	332.93106	-310.56863	361.42603	331.65582	-336.43268	94.65176	378.46619	-302.16980	110.63936	469.42780	-392.01791	58.76727	435.28922	-225.48329	39.90677	340.71835	-149.92351	57.02713	405.70987	-187.30609	44.99789	454.09293	-371.34769	1033.38562	593.46576	-209.02397	997.53271	669.07825	-325.98703	604.79199	726.28131	-318.96939	561.00000	723.44708	-263.29211	606.86884	719.20667	-266.68546	563.94049	719.16034	-305.68494	519.63086	715.19208	-321.72202	492.57025	601.18073	-378.38672	413.31076	731.09930	-374.98541	367.45630	732.66254	-318.19357	409.93024	731.44385	-321.77936	363.94199	735.54041	-357.73410	97.70562	703.70477	-318.34897	106.09898	613.28992	-413.43423	59.87637	643.34003	-195.26254	49.13024	652.48114	-198.22501	61.88115	702.70898	-246.78931	39.55821	757.41016
372	3.09167	-377.78766	1022.48859	506.91266	-203.78922	1004.75250	432.04004	-314.90326	599.34973	350.54694	-304.71643	552.81268	353.59949	-254.93025	607.59991	355.36929	-254.51250	560.92224	360.69092	-308.36624	514.47046	352.82410	-295.66824	503.00488	463.75815	-364.74033	409.23660	340.47433	-363.75824	364.48920	337.86993	-302.61356	405.99423	332.97702	-310.50073	361.45276	331.68701	-336.38773	94.65409	378.49625	-302.13046	110.63147	469.45242	-392.00711	58.75645	435.32642	-225.47900	39.90623	340.71768	-149.93382	56.98631	405.71185	-187.30017	44.96910	454.09760	-370.95813	1033.30957	593.65887	-208.53815	997.52899	669.10046	-325.64240	604.81226	726.38263	-318.68179	560.98883	723.53650	-262.97903	606.80695	719.24939	-266.37674	563.87665	719.15894	-305.42038	519.63336	715.25519	-321.55194	492.57849	601.25507	-378.20602	413.32272	731.18195	-374.71240	367.45862	732.69775	-318.04633	409.87772	731.48077	-321.57147	363.91943	735.60168	-357.68909	97.74020	703.74213	-318.32492	106.09877	613.30188	-413.40698	59.84011	643.37769	-195.25899	49.09581	652.49060	-198.21144	61.84018	702.71930	-246.77531	39.54056	757.41809
373	3.10000	-377.39328	1022.40295	507.10620	-203.52831	1004.77216	432.05582	-314.73743	599.37213	350.61734	-304.59375	552.83044	353.68002	-254.80336	607.62189	355.40747	-254.86334	562.36841	359.37128	-308.23187	514.50476	352.88348	-295.53506	502.95673	463.85641	-364.64066	409.26019	340.51224	-363.65805	364.51126	337.92029	-302.50357	406.02509	333.02042	-310.41006	361.48318	331.71774	-336.38528	94.65090	378.51309	-302.12720	110.60849	469.50070	-391.97003	58.71740	435.37296	-225.47838	39.98293	340.65958	-149.93143	56.93484	405.73825	-187.31337	44.91582	454.13763	-370.53976	1033.24841	593.83636	-208.12695	997.48462	669.14062	-325.19977	604.79761	726.46741	-318.34024	560.96405	723.60016	-262.59399	606.70215	719.29968	-266.10376	563.80304	719.19360	-305.17169	519.58228	715.32147	-321.37820	492.58698	601.29376	-377.96808	413.27655	731.28644	-374.41180	367.41827	732.80994	-317.78580	409.81821	731.54059	-321.38382	363.85449	735.65930	-357.68503	97.68527	703.77112	-318.31635	106.10023	613.29126	-413.06287	59.91574	643.19318	-195.23561	49.07184	652.52618	-198.22258	61.79242	702.75299	-246.77353	39.52683	757.44641
374	3.10833	-375.94714	1022.09564	507.46802	-203.24423	1004.80139	432.08176	-314.58344	599.42462	350.66425	-304.44266	552.89166	353.73892	-254.66029	607.65210	355.44537	-254.71043	562.39948	359.40015	-308.11572	514.56616	352.93839	-296.52420	502.36041	463.37708	-364.56223	409.34125	340.55121	-363.60773	364.57483	337.94580	-302.38846	406.08990	333.08441	-310.33649	361.54398	331.76154	-336.36160	94.70467	378.51706	-302.14343	110.58120	469.51816	-391.92664	58.69602	435.40717	-225.49983	39.96023	340.67719	-149.90913	56.90379	405.78955	-187.30446	44.89925	454.18823	-370.11526	1033.20605	593.98053	-207.67400	997.42871	669.17377	-324.79510	604.76312	726.51337	-317.92038	560.95563	723.70392	-262.23825	606.61603	719.36871	-265.74472	563.76562	719.23883	-304.83890	519.51306	715.37476	-321.15567	492.60657	601.31592	-377.66196	413.24521	731.38513	-374.18829	367.34247	732.89569	-317.60712	409.73074	731.57104	-321.18069	363.83600	735.74353	-357.64474	97.64411	703.79846	-318.28171	106.11978	613.28717	-413.03946	59.92653	643.18121	-195.22421	49.05057	652.57458	-198.24750	61.76170	702.81488	-246.78818	39.51048	757.48444
375	3.11667	-375.61694	1022.05780	507.58710	-203.00716	1004.83264	432.07950	-314.42114	599.46979	350.70657	-304.33542	552.95532	353.76230	-254.52325	607.66846	355.46698	-254.58878	562.43164	359.42181	-307.99875	514.60095	352.98248	-295.18710	502.90158	463.94339	-364.50363	409.38583	340.57834	-363.56848	364.63962	337.96109	-302.28223	406.12878	333.12756	-310.27902	361.57843	331.78912	-336.35373	94.73943	378.51093	-302.13528	110.54121	469.50876	-391.94144	58.72578	435.41727	-225.50850	39.94486	340.64841	-149.91293	56.89835	405.79037	-187.30914	44.89549	454.18994	-369.68201	1033.15271	594.09796	-207.10045	997.43262	669.17963	-324.37109	604.76532	726.54041	-317.50735	560.98474	723.77155	-261.79840	606.62115	719.36176	-265.30997	563.76123	719.25421	-304.48541	519.50079	715.39319	-320.85507	492.62332	601.35211	-377.37814	413.27515	731.42078	-373.92868	367.35361	732.92389	-317.39301	409.66980	731.58240	-320.93747	363.83960	735.77325	-357.62695	97.60992	703.77570	-318.27145	106.12412	613.26715	-413.02652	59.94247	643.15375	-195.19327	49.07821	652.57288	-198.20480	61.75784	702.80267	-246.79964	39.50346	757.48218
